<svg width="20" height="20" viewBox="0 0 20 20" fill="none" xmlns="http://www.w3.org/2000/svg">
<g id="lock">
<path id="Icon" d="M5.83333 9.16667V5.83334C5.83333 4.72827 6.27232 3.66846 7.05372 2.88706C7.83512 2.10566 8.89493 1.66667 10 1.66667C11.1051 1.66667 12.1649 2.10566 12.9463 2.88706C13.7277 3.66846 14.1667 4.72827 14.1667 5.83334V9.16667M4.16667 9.16667H15.8333C16.7538 9.16667 17.5 9.91286 17.5 10.8333V16.6667C17.5 17.5871 16.7538 18.3333 15.8333 18.3333H4.16667C3.24619 18.3333 2.5 17.5871 2.5 16.6667V10.8333C2.5 9.91286 3.24619 9.16667 4.16667 9.16667Z" stroke="#7F7F7F" stroke-width="2" stroke-linecap="round" stroke-linejoin="round"/>
</g>
</svg>
